<svg width="258" height="54" viewBox="0 0 258 54" fill="none" xmlns="http://www.w3.org/2000/svg">
<path d="M3.5 42.7C3 42.7 2.5 42.7 2 42.6C1.5 42.5 1.00001 42.5 0.600006 42.4C0.200006 42.3 0 42.1 0 41.6V36.9C0 36.4 0.199997 36.1 0.699997 36.2C0.899997 36.2 1.2 36.3 1.5 36.3C1.8 36.3 2.1 36.4 2.5 36.4C3.5 36.4 4.29999 35.9 4.89999 34.9C5.59999 33.9 6.00001 32.2 6.10001 29.7L7.7 2.7C7.7 2.2 7.99999 2 8.39999 2H33.4C33.8 2 34.1 2.3 34.1 2.7V41.2C34.1 41.7 33.9 41.9 33.4 41.9H27.5C27.1 41.9 26.8 41.7 26.8 41.2V8.1H14.6L13.2 30.3C13 34.6 12.1 37.7 10.6 39.7C9.20001 41.7 6.8 42.7 3.5 42.7Z" fill="#3EB489"/>
<path d="M43.2 41.9999C42.8 41.9999 42.5 41.7999 42.5 41.2999V12.5999C42.5 12.1999 42.7 11.8999 43.2 11.8999H48.6C49.1 11.8999 49.3 12.0999 49.3 12.5999V25.1999C49.3 26.3999 49.2 27.6999 49.1 28.8999C49 30.0999 48.9 31.3999 48.7 32.5999H48.9C49.5 31.4999 50.1 30.3999 50.7 29.2999C51.3 28.1999 51.9 27.0999 52.6 25.9999L61 12.3999C61.2 12.0999 61.5 11.8999 61.9 11.8999H67.3C67.8 11.8999 68 12.0999 68 12.5999V41.1999C68 41.6999 67.8 41.8999 67.3 41.8999H62C61.5 41.8999 61.3 41.6999 61.3 41.1999V28.9999C61.3 27.7999 61.4 26.5999 61.5 25.2999C61.6 24.0999 61.7 22.7999 61.9 21.5999H61.8C61.2 22.5999 60.6 23.5999 60 24.6999C59.4 25.6999 58.8 26.6999 58.2 27.7999L49.5 41.5999C49.4 41.8999 49.1 41.9999 48.8 41.9999H43.2Z" fill="#3EB489"/>
<path d="M89.5 42.7C84.9 42.7 81.3 41.7 78.8 39.6C76.3 37.5 75.1 34.5 75.1 30.4V23.4C75.1 19.4 76.3 16.3 78.8 14.2C81.3 12.1 84.8 11.1 89.5 11.1H98.1C102.8 11.1 106.3 12.1 108.8 14.2C111.2 16.3 112.5 19.3 112.5 23.4V30.4C112.5 34.4 111.3 37.5 108.8 39.6C106.4 41.7 102.8 42.7 98.1 42.7H89.5ZM89.2 36.7H98.3C100.6 36.7 102.4 36.1 103.5 35C104.6 33.9 105.2 32.1 105.2 29.8V24C105.2 21.6 104.6 19.8 103.5 18.7C102.4 17.6 100.6 17.1 98.3 17.1H89.2C86.9 17.1 85.2 17.6 84 18.7C82.8 19.8 82.3 21.6 82.3 24V29.8C82.3 32.2 82.9 33.9 84 35C85.2 36.1 87 36.7 89.2 36.7ZM90.9 53.3C90.4 53.3 90.2 53.1 90.2 52.6V41L90.4 39.2V15L90.2 12.8V0.899956C90.2 0.399956 90.4 0.199951 90.9 0.199951H96.6C97 0.199951 97.3 0.399956 97.3 0.899956V12.9L97.2 15.2V38.8L97.3 40.7V52.4C97.3 52.9 97.1 53.1 96.6 53.1H90.9V53.3Z" fill="#3EB489"/>
<path d="M126.2 41.9999C125.7 41.9999 125.5 41.7999 125.5 41.2999V17.8999H117.2C116.7 17.8999 116.5 17.6999 116.5 17.1999V12.5999C116.5 12.1999 116.7 11.8999 117.2 11.8999H141C141.5 11.8999 141.7 12.0999 141.7 12.5999V17.1999C141.7 17.6999 141.5 17.8999 141 17.8999H132.8V41.1999C132.8 41.6999 132.6 41.8999 132.1 41.8999H126.2V41.9999Z" fill="#3EB489"/>
<path d="M147.2 41.9999C146.8 41.9999 146.5 41.7999 146.5 41.2999V12.5999C146.5 12.1999 146.7 11.8999 147.2 11.8999H153C153.5 11.8999 153.7 12.0999 153.7 12.5999V23.1999H157.2L164.7 12.2999C164.9 11.9999 165.2 11.8999 165.6 11.8999H172.3C172.6 11.8999 172.8 11.9999 172.8 12.0999C172.9 12.2999 172.8 12.4999 172.7 12.6999L163.5 25.5999L173.7 41.0999C173.8 41.2999 173.8 41.4999 173.8 41.6999C173.7 41.8999 173.5 41.9999 173.3 41.9999H166.4C166 41.9999 165.7 41.8999 165.5 41.5999L157.2 28.9999H153.7V41.1999C153.7 41.6999 153.5 41.8999 153 41.8999H147.2V41.9999Z" fill="#3EB489"/>
<path d="M189.5 42.6999C185.2 42.6999 181.9 41.6999 179.5 39.5999C177.2 37.4999 176 34.3999 176 30.2999V23.6999C176 19.4999 177.2 16.3999 179.5 14.3999C181.8 12.3999 185.2 11.2999 189.5 11.2999C193.8 11.2999 197.1 12.2999 199.5 14.3999C201.9 16.4999 203 19.5999 203 23.6999V30.2999C203 34.4999 201.8 37.5999 199.5 39.5999C197.2 41.5999 193.9 42.6999 189.5 42.6999ZM189.5 36.4999C191.7 36.4999 193.3 35.8999 194.3 34.7999C195.3 33.6999 195.8 31.8999 195.8 29.4999V24.1999C195.8 21.7999 195.3 19.9999 194.3 18.8999C193.3 17.7999 191.7 17.1999 189.5 17.1999C187.3 17.1999 185.7 17.7999 184.7 18.8999C183.7 19.9999 183.2 21.7999 183.2 24.1999V29.4999C183.2 31.8999 183.7 33.6999 184.7 34.7999C185.7 35.9999 187.3 36.4999 189.5 36.4999Z" fill="#3EB489"/>
<path d="M210.2 42C209.7 42 209.5 41.8 209.5 41.3L210 12.7C210 12.3 210.2 12 210.7 12H216.6C217 12 217.3 12.2 217.5 12.5L225.6 28.5L233.7 12.5C233.9 12.1 234.2 12 234.5 12H240.4C240.9 12 241.1 12.2 241.1 12.7L241.6 41.3C241.6 41.8 241.4 42 240.9 42H235.6C235.1 42 234.9 41.8 234.9 41.3L234.8 29.6C234.8 29 234.8 28.3 234.9 27.4C234.9 26.5 235 25.7 235.1 24.8C235.2 23.9 235.2 23.1 235.3 22.4H235C234.6 23.4 234.1 24.4 233.6 25.5C233.1 26.5 232.6 27.4 232.2 28.2L226.3 38.6C226.1 38.8 225.9 39 225.6 39C225.5 39 225.4 39 225.2 38.9C225 38.8 225 38.7 224.8 38.6L219 28C218.5 27.2 218 26.3 217.6 25.3C217.1 24.3 216.7 23.3 216.2 22.2H216C216.1 22.9 216.1 23.7 216.2 24.6C216.2 25.5 216.3 26.4 216.3 27.2C216.3 28.1 216.4 28.8 216.4 29.4L216.3 41.1C216.3 41.6 216.1 41.8 215.6 41.8H210.2V42Z" fill="#3EB489"/>
<path d="M253.1 42.6999C251.5 42.6999 250.3 42.2999 249.6 41.4999C248.8 40.6999 248.4 39.6999 248.4 38.2999V37.2999C248.4 35.9999 248.8 34.8999 249.6 34.0999C250.4 33.2999 251.6 32.8999 253.1 32.8999C254.6 32.8999 255.9 33.2999 256.6 34.0999C257.4 34.8999 257.8 35.8999 257.8 37.2999V38.2999C257.8 39.5999 257.4 40.6999 256.6 41.4999C255.9 42.2999 254.7 42.6999 253.1 42.6999Z" fill="#3EB489"/>
</svg>
