<svg width="348" height="42" viewBox="0 0 348 42" fill="none" xmlns="http://www.w3.org/2000/svg">
<path d="M13.6 33.576C9.408 33.576 6.256 32.568 4.144 30.552C2.032 28.504 0.976 25.576 0.976 21.768V12.792C0.976 8.952 2.032 6.024 4.144 4.008C6.256 1.992 9.408 0.983997 13.6 0.983997C17.824 0.983997 20.992 1.992 23.104 4.008C25.248 6.024 26.32 8.952 26.32 12.792V21.768C26.32 25.576 25.248 28.504 23.104 30.552C20.992 32.568 17.824 33.576 13.6 33.576ZM13.6 28.536C15.904 28.536 17.632 27.944 18.784 26.76C19.936 25.544 20.512 23.784 20.512 21.48V13.08C20.512 10.776 19.936 9.032 18.784 7.848C17.632 6.632 15.904 6.024 13.6 6.024C11.36 6.024 9.648 6.632 8.464 7.848C7.312 9.032 6.736 10.776 6.736 13.08V21.48C6.736 23.784 7.312 25.544 8.464 26.76C9.648 27.944 11.36 28.536 13.6 28.536ZM44.8656 33.576C40.6736 33.576 37.5216 32.568 35.4096 30.552C33.2976 28.504 32.2416 25.576 32.2416 21.768V12.792C32.2416 8.952 33.2976 6.024 35.4096 4.008C37.5216 1.992 40.6736 0.983997 44.8656 0.983997C49.0896 0.983997 52.2576 1.992 54.3696 4.008C56.5136 6.024 57.5856 8.952 57.5856 12.792V21.768C57.5856 25.576 56.5136 28.504 54.3696 30.552C52.2576 32.568 49.0896 33.576 44.8656 33.576ZM44.8656 28.536C47.1696 28.536 48.8976 27.944 50.0496 26.76C51.2016 25.544 51.7776 23.784 51.7776 21.48V13.08C51.7776 10.776 51.2016 9.032 50.0496 7.848C48.8976 6.632 47.1696 6.024 44.8656 6.024C42.6256 6.024 40.9136 6.632 39.7296 7.848C38.5776 9.032 38.0016 10.776 38.0016 13.08V21.48C38.0016 23.784 38.5776 25.544 39.7296 26.76C40.9136 27.944 42.6256 28.536 44.8656 28.536ZM76.1313 33.576C71.9393 33.576 68.7873 32.568 66.6753 30.552C64.5633 28.504 63.5073 25.576 63.5073 21.768V12.792C63.5073 8.952 64.5633 6.024 66.6753 4.008C68.7873 1.992 71.9393 0.983997 76.1313 0.983997C80.3553 0.983997 83.5233 1.992 85.6353 4.008C87.7793 6.024 88.8513 8.952 88.8513 12.792V21.768C88.8513 25.576 87.7793 28.504 85.6353 30.552C83.5233 32.568 80.3553 33.576 76.1313 33.576ZM76.1313 28.536C78.4353 28.536 80.1633 27.944 81.3153 26.76C82.4673 25.544 83.0433 23.784 83.0433 21.48V13.08C83.0433 10.776 82.4673 9.032 81.3153 7.848C80.1633 6.632 78.4353 6.024 76.1313 6.024C73.8913 6.024 72.1793 6.632 70.9953 7.848C69.8433 9.032 69.2673 10.776 69.2673 13.08V21.48C69.2673 23.784 69.8433 25.544 70.9953 26.76C72.1793 27.944 73.8913 28.536 76.1313 28.536ZM121.563 1.56C122.011 1.56 122.187 1.784 122.091 2.232L119.595 14.376C119.531 14.728 119.339 14.904 119.019 14.904H113.643C113.131 14.904 112.971 14.648 113.163 14.136L117.099 1.992C117.195 1.704 117.387 1.56 117.675 1.56H121.563ZM112.395 1.56C112.843 1.56 113.019 1.784 112.923 2.232L110.427 14.376C110.363 14.728 110.171 14.904 109.851 14.904H104.475C103.963 14.904 103.803 14.648 103.995 14.136L107.931 1.992C108.027 1.704 108.219 1.56 108.507 1.56H112.395ZM119.838 33C119.39 33 119.23 32.792 119.358 32.376L129.582 1.992C129.678 1.704 129.886 1.56 130.206 1.56H136.35C136.702 1.56 136.926 1.704 137.022 1.992L147.342 32.376C147.438 32.792 147.278 33 146.862 33H141.822C141.47 33 141.246 32.856 141.15 32.568L135.054 12.792C134.734 11.768 134.43 10.728 134.142 9.672C133.854 8.616 133.566 7.576 133.278 6.552H133.182C132.894 7.576 132.606 8.616 132.318 9.672C132.062 10.728 131.774 11.768 131.454 12.792L125.406 32.52C125.31 32.84 125.102 33 124.782 33H119.838ZM156.66 33.576C154.548 33.576 152.948 32.92 151.86 31.608C150.772 30.264 150.228 28.28 150.228 25.656V9.912C150.228 9.56 150.404 9.384 150.756 9.384H155.316C155.7 9.384 155.892 9.56 155.892 9.912V24.744C155.892 26.056 156.116 27.048 156.564 27.72C157.044 28.36 157.78 28.68 158.772 28.68C159.828 28.68 160.884 28.344 161.94 27.672C162.996 26.968 164.212 25.928 165.588 24.552L165.732 28.776C164.836 29.704 163.908 30.536 162.948 31.272C161.988 31.976 160.996 32.536 159.972 32.952C158.948 33.368 157.844 33.576 156.66 33.576ZM166.164 33C165.78 33 165.556 32.824 165.492 32.472C165.396 31.896 165.3 31.288 165.204 30.648C165.14 30.008 165.092 29.368 165.06 28.728L164.628 26.28V9.912C164.628 9.56 164.82 9.384 165.204 9.384H169.764C170.116 9.384 170.292 9.56 170.292 9.912V27C170.292 27.928 170.308 28.856 170.34 29.784C170.404 30.68 170.5 31.56 170.628 32.424C170.692 32.808 170.5 33 170.052 33H166.164ZM187.087 33.576C183.439 33.576 180.639 32.76 178.687 31.128C176.767 29.496 175.807 27.096 175.807 23.928V18.456C175.807 15.288 176.767 12.888 178.687 11.256C180.639 9.624 183.439 8.808 187.087 8.808H193.855C197.535 8.808 200.335 9.624 202.255 11.256C204.175 12.888 205.135 15.288 205.135 18.456V23.928C205.135 27.096 204.175 29.496 202.255 31.128C200.335 32.76 197.535 33.576 193.855 33.576H187.087ZM186.895 28.872H194.047C195.871 28.872 197.231 28.44 198.127 27.576C199.023 26.68 199.471 25.304 199.471 23.448V18.888C199.471 17 199.023 15.624 198.127 14.76C197.231 13.896 195.871 13.464 194.047 13.464H186.895C185.103 13.464 183.743 13.896 182.815 14.76C181.919 15.624 181.471 17 181.471 18.888V23.448C181.471 25.304 181.919 26.68 182.815 27.576C183.743 28.44 185.103 28.872 186.895 28.872ZM188.239 41.88C187.855 41.88 187.663 41.688 187.663 41.304V32.184L187.807 30.744V11.832L187.663 10.104V0.743998C187.663 0.359999 187.855 0.167999 188.239 0.167999H192.751C193.103 0.167999 193.279 0.359999 193.279 0.743998V10.2L193.183 12.024V30.6L193.279 32.088V41.304C193.279 41.688 193.103 41.88 192.751 41.88H188.239ZM211.131 33C210.779 33 210.603 32.808 210.603 32.424V15.384C210.603 14.456 210.571 13.528 210.507 12.6C210.475 11.672 210.395 10.808 210.267 10.008C210.203 9.592 210.395 9.384 210.843 9.384H214.875C215.195 9.384 215.387 9.512 215.451 9.768C215.515 10.216 215.595 10.712 215.691 11.256C215.787 11.8 215.851 12.344 215.883 12.888C217.131 11.608 218.379 10.616 219.627 9.912C220.875 9.176 222.299 8.808 223.899 8.808C225.595 8.808 226.923 9.16 227.883 9.864C228.843 10.568 229.531 11.608 229.947 12.984C231.227 11.672 232.523 10.648 233.835 9.912C235.147 9.176 236.587 8.808 238.155 8.808C240.363 8.808 242.011 9.464 243.099 10.776C244.219 12.056 244.779 14.024 244.779 16.68V32.424C244.779 32.808 244.587 33 244.203 33H239.691C239.307 33 239.115 32.808 239.115 32.424V17.64C239.115 16.328 238.875 15.352 238.395 14.712C237.947 14.04 237.195 13.704 236.139 13.704C235.243 13.704 234.347 13.976 233.451 14.52C232.587 15.032 231.611 15.816 230.523 16.872V32.424C230.523 32.808 230.331 33 229.947 33H225.435C225.051 33 224.859 32.808 224.859 32.424V17.64C224.859 16.328 224.619 15.352 224.139 14.712C223.659 14.04 222.907 13.704 221.883 13.704C220.987 13.704 220.091 13.976 219.195 14.52C218.331 15.032 217.355 15.816 216.267 16.872V32.424C216.267 32.808 216.075 33 215.691 33H211.131ZM272.228 32.328C272.324 32.488 272.34 32.648 272.276 32.808C272.212 32.936 272.068 33 271.844 33H266.42C266.132 33 265.908 32.888 265.748 32.664L259.316 22.824H256.58V32.424C256.58 32.808 256.388 33 256.004 33H251.444C251.092 33 250.916 32.808 250.916 32.424V0.792C250.916 0.407999 251.092 0.215999 251.444 0.215999H256.004C256.388 0.215999 256.58 0.407999 256.58 0.792V18.264H259.364L265.22 9.72C265.38 9.496 265.604 9.384 265.892 9.384H271.124C271.348 9.384 271.492 9.448 271.556 9.576C271.62 9.704 271.588 9.864 271.46 10.056L264.212 20.184L272.228 32.328ZM284.712 33.576C281.32 33.576 278.696 32.76 276.84 31.128C275.016 29.496 274.104 27.048 274.104 23.784V18.6C274.104 15.336 275.016 12.888 276.84 11.256C278.664 9.624 281.288 8.808 284.712 8.808C288.104 8.808 290.712 9.624 292.536 11.256C294.36 12.888 295.272 15.336 295.272 18.6V23.784C295.272 27.048 294.36 29.496 292.536 31.128C290.744 32.76 288.136 33.576 284.712 33.576ZM284.712 28.728C286.44 28.728 287.688 28.296 288.456 27.432C289.224 26.536 289.608 25.144 289.608 23.256V19.128C289.608 17.24 289.224 15.864 288.456 15C287.688 14.104 286.44 13.656 284.712 13.656C282.984 13.656 281.72 14.104 280.92 15C280.152 15.864 279.768 17.24 279.768 19.128V23.256C279.768 25.144 280.152 26.536 280.92 27.432C281.72 28.296 282.984 28.728 284.712 28.728ZM300.983 33C300.599 33 300.407 32.808 300.407 32.424L300.839 9.912C300.839 9.56 301.031 9.384 301.415 9.384H306.023C306.311 9.384 306.535 9.528 306.695 9.816L313.031 22.392L319.415 9.816C319.575 9.528 319.783 9.384 320.039 9.384H324.695C325.079 9.384 325.271 9.56 325.271 9.912L325.655 32.424C325.655 32.808 325.479 33 325.127 33H320.951C320.567 33 320.375 32.808 320.375 32.424L320.279 23.208C320.279 22.728 320.295 22.152 320.327 21.48C320.359 20.808 320.391 20.12 320.423 19.416C320.487 18.712 320.535 18.072 320.567 17.496H320.423C320.071 18.296 319.687 19.096 319.271 19.896C318.887 20.696 318.535 21.4 318.215 22.008L313.607 30.168C313.479 30.36 313.287 30.456 313.031 30.456C312.935 30.456 312.839 30.44 312.743 30.408C312.647 30.344 312.551 30.264 312.455 30.168L307.895 22.008C307.511 21.4 307.127 20.696 306.743 19.896C306.391 19.096 306.023 18.296 305.639 17.496H305.495C305.559 18.072 305.607 18.712 305.639 19.416C305.671 20.12 305.703 20.808 305.735 21.48C305.767 22.152 305.783 22.728 305.783 23.208L305.687 32.424C305.687 32.808 305.511 33 305.159 33H300.983ZM330.104 14.856C329.688 14.856 329.528 14.648 329.624 14.232L332.072 2.04C332.136 1.72 332.344 1.56 332.696 1.56H338.072C338.552 1.56 338.712 1.8 338.552 2.28L334.616 14.424C334.52 14.712 334.328 14.856 334.04 14.856H330.104ZM339.272 14.856C338.856 14.856 338.696 14.648 338.792 14.232L341.24 2.04C341.304 1.72 341.512 1.56 341.864 1.56H347.24C347.72 1.56 347.88 1.8 347.72 2.28L343.784 14.424C343.688 14.712 343.496 14.856 343.208 14.856H339.272Z" fill="black"/>
</svg>
